<?xml version="1.0" standalone="no"?>
<!DOCTYPE svg PUBLIC "-//W3C//DTD SVG 20010904//EN"
 "http://www.w3.org/TR/2001/REC-SVG-20010904/DTD/svg10.dtd">
<svg version="1.0" xmlns="http://www.w3.org/2000/svg"
 width="116.000000pt" height="211.000000pt" viewBox="0 0 116.000000 211.000000"
 preserveAspectRatio="xMidYMid meet">

<g transform="translate(0.000000,211.000000) scale(0.100000,-0.100000)"
fill="#000000" stroke="none">
<path d="M659 2053 c0 -5 -2 -41 -4 -81 -3 -40 -7 -77 -10 -83 -10 -14 -25 0
-25 23 0 17 -2 18 -15 8 -8 -7 -15 -19 -15 -26 0 -10 -6 -8 -20 6 -11 11 -20
25 -20 30 0 11 -13 13 -23 4 -7 -7 9 -59 34 -106 17 -33 18 -38 5 -38 -9 0
-21 9 -28 20 -7 11 -16 20 -21 20 -4 0 -21 15 -37 33 -24 26 -31 29 -39 17 -5
-8 -8 -17 -5 -21 2 -4 0 -10 -6 -14 -6 -4 -8 -11 -4 -16 3 -5 9 -7 14 -4 5 3
16 -8 24 -24 11 -19 31 -35 61 -47 32 -12 42 -20 33 -25 -20 -13 -56 -11 -61
4 -4 9 -8 8 -16 -3 -8 -12 -12 -12 -29 3 -10 9 -21 14 -24 11 -4 -3 -16 -1
-27 6 -17 9 -22 8 -27 -5 -3 -8 -3 -23 1 -32 5 -10 7 -26 6 -35 -2 -19 14 -24
24 -8 4 6 15 5 30 -2 13 -6 22 -14 20 -19 -3 -4 1 -10 7 -13 7 -4 2 -4 -11 -2
-13 3 -37 2 -53 -1 -24 -5 -26 -8 -16 -21 11 -13 10 -14 -9 -8 -13 4 -26 1
-36 -9 -9 -8 -27 -15 -41 -15 -28 0 -31 -6 -17 -29 11 -17 126 -23 154 -9 10
5 22 6 25 2 4 -4 1 -9 -5 -11 -7 -3 -13 -11 -13 -18 0 -18 -38 -29 -54 -16 -9
8 -18 7 -32 -4 -10 -8 -27 -15 -36 -15 -43 0 9 -40 53 -40 11 0 22 -7 25 -15
7 -16 34 -21 34 -6 0 5 9 11 21 14 19 5 20 4 5 -12 -9 -10 -13 -21 -9 -25 13
-13 -85 0 -102 14 -14 12 -16 12 -14 -1 2 -7 -3 -24 -10 -37 -11 -21 -10 -24
8 -29 12 -3 24 -16 27 -30 4 -16 16 -26 35 -30 16 -3 29 -8 29 -10 0 -17 -33
-30 -71 -30 -47 1 -63 -18 -36 -44 8 -8 16 -21 18 -28 3 -8 21 -20 40 -27 33
-12 32 -13 -27 -9 -67 4 -75 1 -93 -32 -11 -22 -10 -23 24 -23 35 0 51 -19 18
-21 -10 0 -4 -5 12 -10 17 -5 40 -7 52 -4 19 4 25 -1 37 -30 8 -19 22 -35 30
-35 9 0 16 -5 16 -10 0 -6 -11 -8 -27 -4 -22 6 -25 4 -20 -10 6 -14 1 -16 -33
-12 -22 3 -40 1 -40 -4 0 -5 -18 -7 -41 -5 -39 4 -41 2 -37 -20 6 -27 -9 -36
-44 -28 -23 6 -23 6 -4 -15 10 -12 34 -26 52 -32 30 -10 34 -16 34 -45 0 -18
6 -35 13 -38 6 -2 -3 -7 -20 -11 -18 -4 -33 -12 -33 -17 0 -5 -15 -9 -34 -9
-29 0 -33 -3 -29 -20 3 -11 14 -20 24 -20 12 0 16 -5 13 -14 -6 -16 60 -66 88
-66 10 0 18 -6 18 -12 0 -9 3 -8 10 2 8 12 10 12 16 -3 5 -14 9 -15 20 -6 8 6
23 9 34 6 11 -3 22 -1 26 4 3 5 14 14 25 19 15 9 19 7 19 -5 0 -8 -6 -15 -14
-15 -7 0 -19 -6 -25 -14 -7 -8 -26 -18 -42 -21 -16 -4 -29 -13 -29 -20 0 -21
-35 -36 -69 -29 -20 4 -39 1 -56 -10 -13 -9 -35 -16 -47 -16 -19 -1 -17 -4 15
-21 21 -11 43 -19 50 -18 30 4 47 -2 47 -16 0 -12 12 -13 68 -9 37 4 84 10
104 14 22 5 36 4 32 -1 -3 -5 -10 -9 -15 -9 -5 0 -21 -8 -36 -17 -30 -20 -121
-27 -171 -14 -29 9 -37 7 -48 -7 -16 -22 -11 -27 56 -45 87 -25 207 -4 290 50
l35 23 3 -145 3 -146 30 3 31 3 -1 138 c-1 75 1 137 5 137 4 0 15 -6 23 -14 9
-7 30 -18 46 -24 17 -6 54 -20 83 -31 45 -17 54 -17 59 -5 6 17 64 19 80 3 15
-15 34 -3 26 16 -3 9 1 15 10 15 8 0 17 10 21 23 9 34 7 40 -9 33 -27 -10 -16
14 13 27 41 18 55 34 44 53 -6 11 -12 13 -16 6 -4 -6 -13 -9 -21 -5 -8 3 -15
0 -15 -7 0 -7 -8 -9 -20 -5 -11 3 -20 2 -20 -2 0 -5 -20 -10 -45 -12 -33 -1
-49 3 -65 19 -24 24 -18 45 8 31 10 -5 36 -6 62 -1 25 5 50 10 55 10 6 1 1 5
-10 10 -17 7 -15 9 13 9 32 1 40 13 23 40 -7 11 -25 13 -76 8 -41 -3 -62 -1
-54 4 11 7 9 9 -6 9 -11 0 -29 7 -39 15 -18 14 -16 15 32 15 45 0 52 3 52 19
0 11 -6 22 -12 24 -12 5 16 11 34 8 4 0 22 8 40 19 28 17 30 20 12 20 -12 0
-27 7 -34 15 -7 9 -27 14 -49 13 -27 -1 -44 6 -65 25 -16 15 -33 27 -37 27 -5
0 -9 3 -9 8 0 4 17 8 39 8 55 2 84 20 77 48 -4 18 -1 22 21 24 34 3 88 34 88
52 0 7 -10 14 -22 15 -13 1 -23 -3 -23 -8 0 -5 -7 -7 -15 -4 -8 4 -16 3 -19
-1 -8 -13 -75 -13 -97 -2 -20 11 -20 12 -2 25 21 17 69 19 78 5 10 -17 25 -11
25 10 0 11 7 20 15 20 8 0 15 9 15 20 0 19 -5 20 -65 17 -36 -2 -60 0 -53 5 7
4 23 8 36 8 13 0 22 6 22 15 0 10 10 15 30 15 32 0 38 11 16 29 -8 7 -34 9
-67 6 -38 -4 -49 -2 -39 5 12 8 10 10 -10 10 -14 0 -32 5 -40 10 -11 7 -4 10
26 10 41 0 68 23 41 33 -7 3 2 8 18 12 17 4 39 12 50 18 19 10 19 11 -5 17
-16 4 -26 14 -28 29 -2 15 0 21 7 17 10 -7 13 -3 15 26 1 13 -62 18 -86 6 -10
-5 -19 -4 -23 2 -3 5 -18 7 -33 4 -19 -4 -33 0 -41 10 -16 19 -7 33 11 19 20
-14 87 -16 104 -3 20 18 17 27 -8 25 -39 -3 -88 17 -88 36 0 15 4 16 29 6 17
-6 28 -14 25 -18 -2 -4 5 -5 16 -2 11 3 20 10 20 15 0 6 11 7 25 4 22 -6 24
-3 22 23 -1 18 -6 26 -12 21 -5 -4 -25 -5 -44 -3 -23 4 -29 8 -20 14 10 6 7 9
-11 10 -15 0 -5 5 25 13 63 15 76 23 69 41 -5 11 -16 13 -45 9 -32 -5 -39 -4
-39 10 0 9 8 16 19 16 10 0 24 6 30 14 10 12 8 16 -11 22 -13 4 -29 7 -37 5
-15 -3 -53 34 -44 43 4 3 -2 6 -12 6 -10 0 -15 3 -11 7 4 4 27 6 52 4 45 -3
74 11 74 33 0 8 -18 11 -50 10 -27 -2 -52 2 -55 7 -4 5 3 9 14 9 12 0 21 3 21
8 0 4 10 12 23 17 12 6 22 15 22 20 0 6 4 16 8 23 5 8 2 14 -10 19 -10 3 -22
8 -28 11 -5 3 -7 2 -3 -3 11 -11 -18 -35 -43 -35 -20 0 -21 1 -6 18 20 22 33
72 18 72 -6 0 -8 7 -4 16 4 12 0 14 -19 9 -18 -5 -27 -2 -32 10 -5 14 -9 15
-21 5 -7 -6 -12 -17 -10 -23 3 -7 -7 -20 -21 -30 l-25 -18 4 45 c2 25 9 51 15
59 14 16 5 54 -14 61 -8 3 -14 15 -14 26 0 18 -19 30 -21 13z m171 -505 c0
-13 -23 -5 -28 10 -2 7 2 10 12 6 9 -3 16 -11 16 -16z m-101 -100 c1 -3 -12 0
-29 8 -16 9 -30 22 -30 30 0 12 7 10 29 -8 17 -13 30 -26 30 -30z m41 -29 c0
-5 -7 -6 -15 -3 -8 4 -15 13 -15 21 0 13 3 13 15 3 8 -7 15 -16 15 -21z m-226
-64 c-4 -8 -11 -15 -16 -15 -6 0 -5 6 2 15 7 8 14 15 16 15 2 0 1 -7 -2 -15z
m96 -39 c0 -3 -4 -8 -10 -11 -5 -3 -10 -1 -10 4 0 6 5 11 10 11 6 0 10 -2 10
-4z m81 -40 c36 -15 79 -48 79 -61 0 -5 -8 -1 -18 8 -10 9 -40 20 -65 23 -26
4 -47 8 -47 10 0 6 12 34 15 34 1 0 18 -6 36 -14z m-224 -12 c-3 -3 -12 -4
-19 -1 -8 3 -5 6 6 6 11 1 17 -2 13 -5z m403 -4 c0 -5 -9 -10 -20 -10 -11 0
-20 5 -20 10 0 6 9 10 20 10 11 0 20 -4 20 -10z m-160 -90 c0 -5 -7 -7 -15 -4
-8 4 -15 8 -15 10 0 2 7 4 15 4 8 0 15 -4 15 -10z m46 -8 c-10 -2 -22 0 -28 6
-6 6 0 7 19 4 21 -5 23 -7 9 -10z m-366 -2 c0 -5 -9 -10 -19 -10 -11 0 -23 5
-26 10 -4 6 5 10 19 10 14 0 26 -4 26 -10z m380 -100 c0 -5 -2 -10 -4 -10 -3
0 -8 5 -11 10 -3 6 -1 10 4 10 6 0 11 -4 11 -10z m-370 -10 c0 -5 -7 -10 -16
-10 -8 0 -12 5 -9 10 3 6 10 10 16 10 5 0 9 -4 9 -10z m70 6 c0 -3 -4 -8 -10
-11 -5 -3 -10 -1 -10 4 0 6 5 11 10 11 6 0 10 -2 10 -4z m325 -6 c3 -5 1 -10
-4 -10 -6 0 -11 5 -11 10 0 6 2 10 4 10 3 0 8 -4 11 -10z m-125 -20 c0 -5 -2
-10 -4 -10 -3 0 -8 5 -11 10 -3 6 -1 10 4 10 6 0 11 -4 11 -10z m80 -36 l25
-15 -25 7 c-14 3 -32 10 -40 15 -13 7 -13 8 0 8 8 0 26 -6 40 -15z m54 -89
c15 -8 39 -15 53 -15 14 0 22 -4 18 -11 -15 -23 -135 7 -135 33 0 13 33 9 64
-7z m-344 -75 c0 -5 -5 -10 -11 -10 -5 0 -7 5 -4 10 3 6 8 10 11 10 2 0 4 -4
4 -10z m200 -10 c0 -5 -2 -10 -4 -10 -3 0 -8 5 -11 10 -3 6 -1 10 4 10 6 0 11
-4 11 -10z m-70 -5 c0 -2 -10 -10 -22 -16 -21 -11 -22 -11 -9 4 13 16 31 23
31 12z m0 -54 c0 -10 -7 -21 -15 -25 -8 -3 -15 -1 -15 4 0 6 5 10 11 10 6 0 9
7 5 15 -3 8 -1 15 4 15 6 0 10 -9 10 -19z m-232 -83 c-2 -7 3 -12 10 -10 8 1
11 -2 7 -8 -8 -12 -92 -13 -99 -1 -3 5 -16 7 -29 4 -15 -4 -19 -2 -12 5 6 6
30 12 55 15 25 2 51 4 58 5 6 1 11 -4 10 -10z m319 -4 c-3 -3 -12 -4 -19 -1
-8 3 -5 6 6 6 11 1 17 -2 13 -5z m46 -21 c-7 -2 -19 -2 -25 0 -7 3 -2 5 12 5
14 0 19 -2 13 -5z m77 -9 c0 -2 -13 -4 -30 -4 -16 0 -30 4 -30 8 0 5 14 7 30
4 17 -2 30 -6 30 -8z m-222 -105 c-7 -5 -26 -8 -43 -8 -27 0 -28 1 -8 9 12 5
30 21 40 37 l18 27 3 -28 c2 -16 -2 -32 -10 -37z m210 -17 c6 -18 -15 -14 -22
4 -4 10 -1 14 6 12 6 -2 14 -10 16 -16z m-91 -60 c-21 -4 -47 15 -47 35 0 11
8 9 32 -9 27 -18 29 -23 15 -26z m121 -35 c10 -8 10 -12 1 -17 -12 -8 -69 19
-69 33 0 9 51 -2 68 -16z"/>
</g>
</svg>
