<?xml version="1.0" ?>
<!-- Uploaded to: SVG Repo, www.svgrepo.com, Generator: SVG Repo Mixer Tools -->
<svg width="800px" height="800px" viewBox="0 0 64 64" xmlns="http://www.w3.org/2000/svg">
<defs>
<style>.cls-1{fill:#bababa;}.cls-2{fill:#53505a;}.cls-3{fill:#a58961;}.cls-4{fill:#7c6749;}.cls-5{fill:#f5ebe0;}.cls-6{fill:none;stroke:#000000;stroke-linejoin:round;stroke-width:2px;}</style>
</defs>
<title/>
<g data-name="Layer 31" id="Layer_31">
<rect class="cls-1" height="12.73" transform="translate(0.76 44.83) rotate(-45)" width="8.49" x="50.26" y="15.14"/>
<path class="cls-1" d="M38.12,46.88,41,44l-9-9L22,45v2.53h0a6,6,0,0,1,8.5.51,6,6,0,0,1,7.62-1.16Z"/>
<rect class="cls-2" height="4.24" transform="translate(-9.74 40.49) rotate(-45)" width="21.21" x="33.39" y="29.88"/>
<path class="cls-3" d="M55,62a7,7,0,0,0,0-14,7.3,7.3,0,0,0-.94.07A5,5,0,0,0,51,47a4.78,4.78,0,0,0-.76.08,6,6,0,0,0-10.86.83A6,6,0,0,0,30.5,48a6,6,0,0,0-9.83,1.22,6,6,0,0,0-9,2A6,6,0,1,0,8,62Z"/>
<circle class="cls-4" cx="18" cy="18" r="16"/>
<ellipse class="cls-3" cx="16.5" cy="18" rx="14.5" ry="15.92"/>
<path class="cls-1" d="M28,21V17A10,10,0,0,0,18,7h0A10,10,0,0,0,8,17v4l4,4v4H24V25Z"/>
<circle class="cls-5" cx="14" cy="15" r="2"/>
<circle class="cls-5" cx="22" cy="15" r="2"/>
<path class="cls-6" d="M55,62a7,7,0,0,0,0-14,7.3,7.3,0,0,0-.94.07A5,5,0,0,0,51,47a4.78,4.78,0,0,0-.76.08,6,6,0,0,0-10.86.83A6,6,0,0,0,30.5,48a6,6,0,0,0-9.83,1.22,6,6,0,0,0-9,2A6,6,0,1,0,8,62Z"/>
<path class="cls-6" d="M55,52a3,3,0,0,1,0,6"/>
<rect class="cls-6" height="12.73" transform="translate(0.76 44.83) rotate(-45)" width="8.49" x="50.26" y="15.14"/>
<polyline class="cls-6" points="50 23 35 38 38 41 53 26"/>
<polyline class="cls-6" points="38 47 41 44 38 41"/>
<polyline class="cls-6" points="35 38 32 35 22 45 22 48"/>
<line class="cls-6" x1="50" x2="59" y1="17" y2="26"/>
<path class="cls-6" d="M28,21V17A10,10,0,0,0,18,7h0A10,10,0,0,0,8,17v4l4,4v4H24V25Z"/>
<line class="cls-6" x1="16" x2="16" y1="29" y2="25"/>
<line class="cls-6" x1="20" x2="20" y1="29" y2="25"/>
<polyline class="cls-6" points="16 22 18 20 20 22"/>
<circle class="cls-6" cx="14" cy="15" r="2"/>
<circle class="cls-6" cx="22" cy="15" r="2"/>
<circle class="cls-6" cx="18" cy="18" r="16"/>
</g>
</svg>