<?xml version="1.0" encoding="iso-8859-1"?>
<!-- Uploaded to: SVG Repo, www.svgrepo.com, Generator: SVG Repo Mixer Tools -->
<svg height="800px" width="800px" version="1.1" id="Layer_1" xmlns="http://www.w3.org/2000/svg" xmlns:xlink="http://www.w3.org/1999/xlink" 
	 viewBox="0 0 512.001 512.001" xml:space="preserve">
<path style="fill:#DFDFE2;" d="M339.564,74.345c0,0-75.243,154.863-33.632,263.113s-6.391,174.544-6.391,174.544l-39.953-0.254
	c0,0-1.467-77.946-69.367-171.962S160.66,74.345,160.66,74.345H339.564z"/>
<g>
	<path style="opacity:0.3;fill:#ACAAB1;enable-background:new    ;" d="M293.461,256.114c0.598-26.66,4.799-53.278,10.438-77.606
		c-90.811,11.696-135.709-35.905-150.629-56.559c-2.456,22.295-4.266,50.498-2.951,80.341
		C166.834,224.605,209.879,266.955,293.461,256.114z"/>
	<path style="opacity:0.3;fill:#ACAAB1;enable-background:new    ;" d="M303.884,331.797
		c-78.402,10.11-118.245-15.599-134.876-31.559c5.523,14.107,12.489,27.465,21.213,39.545c13.143,18.198,23.788,35.79,32.424,52.336
		c17.244,14.851,48.487,30.764,100.099,23.485c-0.865-22.66-5.556-48.865-16.812-78.147
		C305.21,335.584,304.535,333.696,303.884,331.797z"/>
</g>
<g style="opacity:0.3;">
	<path style="fill:#ACAAB1;" d="M260.367,511.746L300.32,512c0,0,8.469-11.701,15.209-33.29
		c-40.414-6.652-57.92-14.874-64.839-19.273C259.981,491.594,260.367,511.746,260.367,511.746z"/>
</g>
<path style="opacity:0.15;fill:#3E3B43;enable-background:new    ;" d="M319.392,384.029c-0.035-0.195-0.075-0.394-0.112-0.589
	c-0.252-1.351-0.516-2.709-0.796-4.078c-0.067-0.329-0.138-0.659-0.207-0.989c-0.26-1.246-0.531-2.498-0.816-3.759
	c-0.093-0.413-0.189-0.827-0.285-1.241c-0.274-1.187-0.559-2.38-0.854-3.579c-0.117-0.473-0.235-0.947-0.355-1.423
	c-0.292-1.157-0.596-2.321-0.91-3.49c-0.137-0.51-0.273-1.02-0.414-1.531c-0.317-1.153-0.647-2.314-0.984-3.478
	c-0.152-0.525-0.302-1.05-0.459-1.578c-0.349-1.178-0.713-2.365-1.084-3.556c-0.161-0.517-0.318-1.032-0.483-1.552
	c-0.398-1.25-0.814-2.51-1.236-3.773c-0.155-0.462-0.302-0.919-0.459-1.383c-0.492-1.448-1.006-2.906-1.53-4.371
	c-0.101-0.282-0.195-0.561-0.298-0.844c-0.642-1.775-1.305-3.559-1.996-5.357c-0.554-1.441-1.077-2.895-1.59-4.352
	c-0.142-0.406-0.288-0.812-0.428-1.22c-8.763-25.524-11.391-53.38-10.287-81.041c0.018-0.438,0.043-0.874,0.062-1.312
	c0.059-1.332,0.121-2.664,0.197-3.994c0.036-0.633,0.079-1.265,0.119-1.898c0.071-1.13,0.144-2.261,0.227-3.39
	c0.052-0.713,0.11-1.427,0.167-2.14c0.084-1.045,0.169-2.088,0.261-3.131c0.068-0.757,0.138-1.515,0.211-2.271
	c0.095-0.993,0.193-1.985,0.297-2.976c0.081-0.787,0.165-1.572,0.252-2.357c0.105-0.953,0.216-1.902,0.329-2.853
	c0.097-0.814,0.193-1.629,0.295-2.441c0.113-0.9,0.232-1.799,0.351-2.697c0.113-0.85,0.224-1.701,0.342-2.549
	c0.115-0.828,0.238-1.653,0.358-2.478c0.133-0.908,0.261-1.819,0.4-2.723c0.073-0.476,0.151-0.95,0.227-1.425
	c0.399-2.547,0.818-5.082,1.261-7.601c0.043-0.247,0.084-0.495,0.127-0.743c0.215-1.212,0.439-2.417,0.663-3.622
	c0.084-0.449,0.165-0.902,0.25-1.35c0.224-1.18,0.454-2.355,0.686-3.528c0.09-0.454,0.179-0.91,0.27-1.363
	c0.238-1.181,0.48-2.359,0.726-3.532c0.09-0.427,0.179-0.854,0.27-1.281c0.255-1.198,0.512-2.392,0.774-3.581
	c0.083-0.375,0.166-0.75,0.25-1.125c0.275-1.234,0.553-2.463,0.836-3.686c13.621-58.931,35.732-104.456,35.732-104.456h-37.572
	c0,0-22.111,45.526-35.732,104.456c-0.283,1.222-0.561,2.453-0.836,3.686c-0.084,0.375-0.167,0.749-0.25,1.125
	c-0.262,1.189-0.52,2.383-0.774,3.581c-0.09,0.426-0.18,0.853-0.27,1.281c-0.245,1.173-0.488,2.349-0.726,3.532
	c-0.091,0.453-0.18,0.909-0.27,1.363c-0.232,1.173-0.463,2.347-0.686,3.528c-0.085,0.448-0.166,0.9-0.25,1.35
	c-0.225,1.204-0.448,2.41-0.663,3.622c-0.044,0.247-0.085,0.495-0.127,0.743c-0.443,2.519-0.862,5.054-1.261,7.601
	c-0.074,0.475-0.154,0.949-0.227,1.425c-0.139,0.906-0.267,1.816-0.4,2.723c-0.12,0.825-0.243,1.651-0.358,2.478
	c-0.118,0.847-0.229,1.699-0.342,2.549c-0.119,0.898-0.239,1.797-0.351,2.697c-0.101,0.813-0.197,1.626-0.295,2.441
	c-0.113,0.95-0.224,1.9-0.329,2.853c-0.087,0.785-0.17,1.57-0.252,2.357c-0.103,0.99-0.202,1.983-0.297,2.976
	c-0.072,0.756-0.143,1.514-0.21,2.271c-0.093,1.043-0.179,2.086-0.261,3.131c-0.056,0.713-0.115,1.426-0.167,2.14
	c-0.083,1.129-0.156,2.26-0.227,3.39c-0.04,0.633-0.084,1.265-0.119,1.898c-0.075,1.331-0.139,2.662-0.197,3.994
	c-0.02,0.438-0.044,0.874-0.062,1.312c-1.103,27.661,1.524,55.516,10.287,81.041c0.14,0.407,0.286,0.813,0.428,1.22
	c0.513,1.457,1.035,2.91,1.59,4.352c0.692,1.798,1.354,3.583,1.996,5.357c0.102,0.283,0.196,0.562,0.298,0.844
	c0.524,1.464,1.038,2.923,1.53,4.371c0.158,0.463,0.305,0.921,0.459,1.383c0.422,1.263,0.838,2.523,1.236,3.773
	c0.165,0.519,0.322,1.034,0.483,1.552c0.371,1.19,0.735,2.377,1.084,3.556c0.157,0.529,0.306,1.053,0.459,1.578
	c0.337,1.165,0.666,2.324,0.984,3.478c0.141,0.512,0.277,1.022,0.414,1.531c0.313,1.169,0.617,2.333,0.91,3.49
	c0.12,0.475,0.238,0.95,0.355,1.423c0.296,1.199,0.58,2.392,0.854,3.579c0.096,0.415,0.192,0.828,0.285,1.241
	c0.284,1.261,0.555,2.512,0.816,3.759c0.069,0.33,0.14,0.66,0.207,0.989c0.28,1.368,0.544,2.727,0.796,4.078
	c0.037,0.196,0.076,0.394,0.112,0.589c7.44,40.451,2.415,72.601-4.42,94.557c0.249,0.042,0.488,0.084,0.739,0.124
	c-6.2,19.858-13.857,31.343-15.045,33.057L299.726,512l0.003-0.005l0.774,0.005c0,0,8.469-11.701,15.209-33.29
	c-0.251-0.041-0.49-0.084-0.739-0.124C321.807,456.63,326.832,424.48,319.392,384.029z"/>
<path style="fill:#8EC1ED;" d="M511.933,44.638c0,24.653-19.985,44.638-44.638,44.638c-16.218,0-30.414-8.651-38.231-21.588
	c-7.576,9.106-18.989,14.906-31.761,14.906c-10.686,0-20.424-4.059-27.758-10.72c-8.124,16.567-25.15,27.976-44.847,27.976
	c-15.306,0-28.996-6.894-38.154-17.741c-8.994,21.077-29.904,35.852-54.269,35.852c-25.15,0-46.611-15.749-55.092-37.917
	c-7.526,5.784-16.943,9.23-27.168,9.23c-5.6,0-10.955-1.04-15.894-2.924c-8.381,6.844-19.084,10.954-30.749,10.954
	c-13.73,0-26.124-5.696-34.97-14.845c-6.868,4.312-14.988,6.815-23.696,6.815c-24.653,0-44.638-19.985-44.638-44.638V0h511.864
	L511.933,44.638z"/>
<path style="fill:#52A2E7;" d="M467.295,56.896c-16.218,0-30.414-8.651-38.231-21.588c-7.575,9.106-18.989,14.906-31.761,14.906
	c-10.686,0-20.424-4.059-27.758-10.72c-8.124,16.567-25.15,27.976-44.847,27.976c-15.306,0-28.996-6.894-38.154-17.741
	c-8.994,21.077-29.904,35.852-54.269,35.852c-25.15,0-46.611-15.749-55.092-37.917c-7.526,5.784-16.943,9.23-27.168,9.23
	c-5.6,0-10.955-1.04-15.894-2.924c-8.381,6.844-19.084,10.954-30.749,10.954c-13.73,0-26.124-5.696-34.97-14.845
	c-6.868,4.312-14.988,6.815-23.696,6.815c-24.653,0-44.638-19.985-44.638-44.638v32.38c0,24.653,19.985,44.638,44.638,44.638
	c8.708,0,16.828-2.503,23.696-6.815c8.846,9.148,21.239,14.845,34.97,14.845c11.665,0,22.367-4.11,30.749-10.954
	c4.939,1.883,10.294,2.924,15.894,2.924c10.226,0,19.642-3.446,27.168-9.23c8.481,22.168,29.942,37.917,55.092,37.917
	c24.365,0,45.274-14.775,54.269-35.852c9.158,10.845,22.848,17.741,38.154,17.741c19.696,0,36.723-11.409,44.847-27.976
	c7.332,6.661,17.071,10.72,27.758,10.72c12.77,0,24.185-5.8,31.761-14.906c7.817,12.938,22.013,21.588,38.231,21.588
	c24.653,0,44.638-19.985,44.638-44.638V12.26C511.931,36.912,491.947,56.896,467.295,56.896z"/>
</svg>